<mxfile host="65bd71144e">
    <diagram id="VUHM-vbmOBemICBGj6NH" name="Page-1">
        <mxGraphModel dx="1165" dy="1453" grid="0" gridSize="10" guides="1" tooltips="1" connect="1" arrows="0" fold="1" page="0" pageScale="1" pageWidth="827" pageHeight="1169" math="0" shadow="0">
            <root>
                <mxCell id="0"/>
                <mxCell id="1" parent="0"/>
                <mxCell id="2" value="Gerecht" style="swimlane;whiteSpace=wrap;html=1;" parent="1" vertex="1">
                    <mxGeometry x="-43" y="-157" width="200" height="238" as="geometry">
                        <mxRectangle x="230" y="190" width="90" height="30" as="alternateBounds"/>
                    </mxGeometry>
                </mxCell>
                <mxCell id="4" value="&lt;ul&gt;&lt;li&gt;id&lt;/li&gt;&lt;li&gt;Gerecht&lt;/li&gt;&lt;li&gt;Gebruikersaccount_id&lt;/li&gt;&lt;li&gt;Datum toevoeging gerecht&lt;/li&gt;&lt;li&gt;Type_id&lt;/li&gt;&lt;li&gt;Keuken_id&lt;/li&gt;&lt;li&gt;Foto gerecht&lt;/li&gt;&lt;li&gt;Omschrijving gerecht&lt;/li&gt;&lt;/ul&gt;" style="text;html=1;align=center;verticalAlign=middle;resizable=0;points=[];autosize=1;strokeColor=none;fillColor=none;" parent="2" vertex="1">
                    <mxGeometry y="20" width="200" height="200" as="geometry"/>
                </mxCell>
                <mxCell id="7" value="Ingredienten" style="swimlane;whiteSpace=wrap;html=1;" parent="1" vertex="1">
                    <mxGeometry x="-48" y="-400" width="200" height="130" as="geometry"/>
                </mxCell>
                <mxCell id="8" value="&lt;ul&gt;&lt;li&gt;id&lt;/li&gt;&lt;li&gt;Gerecht_id&lt;/li&gt;&lt;li&gt;Artikel_id&lt;/li&gt;&lt;li&gt;Artikel hoeveelheid&lt;/li&gt;&lt;/ul&gt;" style="text;html=1;align=center;verticalAlign=middle;resizable=0;points=[];autosize=1;strokeColor=none;fillColor=none;" parent="7" vertex="1">
                    <mxGeometry y="10" width="160" height="120" as="geometry"/>
                </mxCell>
                <mxCell id="10" value="Bereiding" style="swimlane;whiteSpace=wrap;html=1;" parent="1" vertex="1">
                    <mxGeometry x="254" y="-240" width="200" height="131" as="geometry"/>
                </mxCell>
                <mxCell id="11" value="&lt;ul&gt;&lt;li&gt;id&lt;/li&gt;&lt;li&gt;Gerecht_id&lt;/li&gt;&lt;li&gt;Bereidingsstap&lt;/li&gt;&lt;li&gt;Bereidingswijze tekst&lt;/li&gt;&lt;/ul&gt;" style="text;html=1;align=center;verticalAlign=middle;resizable=0;points=[];autosize=1;strokeColor=none;fillColor=none;" parent="10" vertex="1">
                    <mxGeometry x="5" y="13" width="170" height="118" as="geometry"/>
                </mxCell>
                <mxCell id="14" value="Type" style="swimlane;whiteSpace=wrap;html=1;" parent="1" vertex="1">
                    <mxGeometry x="251" y="-73" width="202" height="130" as="geometry"/>
                </mxCell>
                <mxCell id="15" value="&lt;ul&gt;&lt;li&gt;id&lt;/li&gt;&lt;li&gt;Gerecht_id&lt;/li&gt;&lt;li&gt;Gerecht type&lt;/li&gt;&lt;/ul&gt;" style="text;html=1;align=center;verticalAlign=middle;resizable=0;points=[];autosize=1;strokeColor=none;fillColor=none;" parent="14" vertex="1">
                    <mxGeometry y="20" width="130" height="100" as="geometry"/>
                </mxCell>
                <mxCell id="16" value="Keuken" style="swimlane;whiteSpace=wrap;html=1;" parent="1" vertex="1">
                    <mxGeometry x="249" y="116" width="206" height="120" as="geometry"/>
                </mxCell>
                <mxCell id="17" value="&lt;ul&gt;&lt;li&gt;id&lt;/li&gt;&lt;li&gt;Gerecht_id&lt;/li&gt;&lt;li&gt;Gerecht keuken&lt;/li&gt;&lt;/ul&gt;" style="text;html=1;align=center;verticalAlign=middle;resizable=0;points=[];autosize=1;strokeColor=none;fillColor=none;" parent="16" vertex="1">
                    <mxGeometry y="20" width="150" height="100" as="geometry"/>
                </mxCell>
                <mxCell id="19" value="Artikel" style="swimlane;whiteSpace=wrap;html=1;" parent="1" vertex="1">
                    <mxGeometry x="-48" y="-628" width="205" height="160" as="geometry"/>
                </mxCell>
                <mxCell id="20" value="&lt;ul&gt;&lt;li&gt;id&lt;/li&gt;&lt;li&gt;Artikel naam&lt;/li&gt;&lt;li&gt;Artikel beschrijving&lt;/li&gt;&lt;li&gt;Artikel calorieen individueel&lt;/li&gt;&lt;li&gt;Artikel prijs individueel&lt;/li&gt;&lt;/ul&gt;" style="text;html=1;align=center;verticalAlign=middle;resizable=0;points=[];autosize=1;strokeColor=none;fillColor=none;" parent="19" vertex="1">
                    <mxGeometry x="-13" y="18" width="210" height="140" as="geometry"/>
                </mxCell>
                <mxCell id="23" value="Gebruikersaccount" style="swimlane;whiteSpace=wrap;html=1;" parent="1" vertex="1">
                    <mxGeometry x="-370" y="-73" width="214" height="130" as="geometry"/>
                </mxCell>
                <mxCell id="24" value="&lt;ul&gt;&lt;li&gt;id&lt;/li&gt;&lt;li&gt;Account naam&lt;/li&gt;&lt;li&gt;Account foto&lt;/li&gt;&lt;/ul&gt;" style="text;html=1;align=center;verticalAlign=middle;resizable=0;points=[];autosize=1;strokeColor=none;fillColor=none;" parent="23" vertex="1">
                    <mxGeometry y="25" width="140" height="100" as="geometry"/>
                </mxCell>
                <mxCell id="25" value="Opmerkingen" style="swimlane;whiteSpace=wrap;html=1;startSize=23;" parent="1" vertex="1">
                    <mxGeometry x="-366" y="-258" width="210" height="140" as="geometry"/>
                </mxCell>
                <mxCell id="26" value="&lt;ul&gt;&lt;li&gt;id&lt;/li&gt;&lt;li&gt;Gebruikersaccount_id&lt;/li&gt;&lt;li&gt;Gerecht_id&lt;/li&gt;&lt;li&gt;Opmerkingen gebruikers (tekst)&lt;/li&gt;&lt;/ul&gt;" style="text;html=1;align=center;verticalAlign=middle;resizable=0;points=[];autosize=1;strokeColor=none;fillColor=none;" parent="25" vertex="1">
                    <mxGeometry x="-20" y="20" width="230" height="120" as="geometry"/>
                </mxCell>
                <mxCell id="27" value="Rating (anoniem)" style="swimlane;whiteSpace=wrap;html=1;startSize=23;" parent="1" vertex="1">
                    <mxGeometry x="-369" y="-405" width="213" height="120" as="geometry"/>
                </mxCell>
                <mxCell id="28" value="&lt;ul&gt;&lt;li&gt;id&lt;/li&gt;&lt;li&gt;Gerecht_id&lt;/li&gt;&lt;li&gt;Rating&lt;/li&gt;&lt;/ul&gt;" style="text;html=1;align=center;verticalAlign=middle;resizable=0;points=[];autosize=1;strokeColor=none;fillColor=none;" parent="27" vertex="1">
                    <mxGeometry x="27" y="22" width="117" height="97" as="geometry"/>
                </mxCell>
                <mxCell id="29" value="Favorieten" style="swimlane;whiteSpace=wrap;html=1;" parent="1" vertex="1">
                    <mxGeometry x="-369" y="116" width="216" height="140" as="geometry"/>
                </mxCell>
                <mxCell id="30" value="&lt;ul&gt;&lt;li&gt;id&lt;/li&gt;&lt;li&gt;Gebruikersaccount_id&lt;/li&gt;&lt;li&gt;Gerecht_id&lt;/li&gt;&lt;li&gt;Favorieten&lt;/li&gt;&lt;/ul&gt;" style="text;html=1;align=center;verticalAlign=middle;resizable=0;points=[];autosize=1;strokeColor=none;fillColor=none;" parent="29" vertex="1">
                    <mxGeometry x="8" y="21" width="175" height="118" as="geometry"/>
                </mxCell>
                <mxCell id="45" value="" style="endArrow=none;html=1;strokeWidth=1;entryX=0.003;entryY=0.504;entryDx=0;entryDy=0;entryPerimeter=0;exitX=1;exitY=0.5;exitDx=0;exitDy=0;" parent="1" source="46" target="15" edge="1">
                    <mxGeometry width="50" height="50" relative="1" as="geometry">
                        <mxPoint x="166" y="39" as="sourcePoint"/>
                        <mxPoint x="202" y="-15" as="targetPoint"/>
                    </mxGeometry>
                </mxCell>
                <mxCell id="46" value="" style="triangle;whiteSpace=wrap;html=1;" parent="1" vertex="1">
                    <mxGeometry x="157" y="-16" width="13" height="26" as="geometry"/>
                </mxCell>
                <mxCell id="49" value="" style="triangle;whiteSpace=wrap;html=1;direction=south;" parent="1" vertex="1">
                    <mxGeometry x="89" y="81" width="26" height="13" as="geometry"/>
                </mxCell>
                <mxCell id="50" value="" style="endArrow=none;html=1;strokeWidth=1;exitX=1;exitY=0.5;exitDx=0;exitDy=0;entryX=-0.004;entryY=0.506;entryDx=0;entryDy=0;entryPerimeter=0;" parent="1" source="49" target="17" edge="1">
                    <mxGeometry width="50" height="50" relative="1" as="geometry">
                        <mxPoint x="235" y="137" as="sourcePoint"/>
                        <mxPoint x="285" y="87" as="targetPoint"/>
                        <Array as="points">
                            <mxPoint x="102" y="187"/>
                        </Array>
                    </mxGeometry>
                </mxCell>
                <mxCell id="51" value="" style="endArrow=none;html=1;strokeWidth=1;exitX=0.75;exitY=0;exitDx=0;exitDy=0;" parent="1" source="2" edge="1">
                    <mxGeometry width="50" height="50" relative="1" as="geometry">
                        <mxPoint x="52" y="-87.5" as="sourcePoint"/>
                        <mxPoint x="252" y="-200" as="targetPoint"/>
                        <Array as="points">
                            <mxPoint x="107" y="-200"/>
                        </Array>
                    </mxGeometry>
                </mxCell>
                <mxCell id="57" value="" style="triangle;whiteSpace=wrap;html=1;rotation=-90;" parent="1" vertex="1">
                    <mxGeometry x="45.5" y="-176" width="13" height="26" as="geometry"/>
                </mxCell>
                <mxCell id="58" value="" style="endArrow=none;html=1;strokeWidth=1;entryX=1;entryY=0.5;entryDx=0;entryDy=0;exitX=0.5;exitY=1;exitDx=0;exitDy=0;" parent="1" source="7" target="57" edge="1">
                    <mxGeometry width="50" height="50" relative="1" as="geometry">
                        <mxPoint x="53" y="-248" as="sourcePoint"/>
                        <mxPoint x="41" y="-156" as="targetPoint"/>
                    </mxGeometry>
                </mxCell>
                <mxCell id="59" value="" style="triangle;whiteSpace=wrap;html=1;rotation=90;" parent="1" vertex="1">
                    <mxGeometry x="45.5" y="-473" width="13" height="26" as="geometry"/>
                </mxCell>
                <mxCell id="60" value="" style="endArrow=none;html=1;strokeWidth=1;exitX=1;exitY=0.5;exitDx=0;exitDy=0;entryX=0.5;entryY=0;entryDx=0;entryDy=0;" parent="1" source="59" target="7" edge="1">
                    <mxGeometry width="50" height="50" relative="1" as="geometry">
                        <mxPoint x="-9" y="-106" as="sourcePoint"/>
                        <mxPoint x="41" y="-156" as="targetPoint"/>
                    </mxGeometry>
                </mxCell>
                <mxCell id="61" value="" style="triangle;whiteSpace=wrap;html=1;rotation=0;" parent="1" vertex="1">
                    <mxGeometry x="-154" y="-350" width="13" height="26" as="geometry"/>
                </mxCell>
                <mxCell id="62" value="" style="endArrow=none;html=1;strokeWidth=1;exitX=1;exitY=0.5;exitDx=0;exitDy=0;entryX=0.205;entryY=-0.002;entryDx=0;entryDy=0;entryPerimeter=0;" parent="1" source="61" target="2" edge="1">
                    <mxGeometry width="50" height="50" relative="1" as="geometry">
                        <mxPoint x="37" y="-72" as="sourcePoint"/>
                        <mxPoint x="-15" y="-85" as="targetPoint"/>
                    </mxGeometry>
                </mxCell>
                <mxCell id="66" value="" style="triangle;whiteSpace=wrap;html=1;rotation=0;" parent="1" vertex="1">
                    <mxGeometry x="-156" y="-193" width="13" height="26" as="geometry"/>
                </mxCell>
                <mxCell id="67" value="" style="endArrow=none;html=1;strokeWidth=1;entryX=1;entryY=0.5;entryDx=0;entryDy=0;exitX=-0.005;exitY=0.103;exitDx=0;exitDy=0;exitPerimeter=0;" parent="1" source="4" target="66" edge="1">
                    <mxGeometry width="50" height="50" relative="1" as="geometry">
                        <mxPoint x="-293" y="-106" as="sourcePoint"/>
                        <mxPoint x="-243" y="-156" as="targetPoint"/>
                    </mxGeometry>
                </mxCell>
                <mxCell id="71" value="" style="triangle;whiteSpace=wrap;html=1;rotation=90;" parent="1" vertex="1">
                    <mxGeometry x="-269.5" y="-125" width="13" height="26" as="geometry"/>
                </mxCell>
                <mxCell id="72" value="" style="endArrow=none;html=1;strokeWidth=1;entryX=1;entryY=0.5;entryDx=0;entryDy=0;exitX=0.5;exitY=0;exitDx=0;exitDy=0;" parent="1" source="23" target="71" edge="1">
                    <mxGeometry width="50" height="50" relative="1" as="geometry">
                        <mxPoint x="-212" y="-49" as="sourcePoint"/>
                        <mxPoint x="-162" y="-99" as="targetPoint"/>
                    </mxGeometry>
                </mxCell>
                <mxCell id="74" value="" style="endArrow=none;html=1;strokeWidth=1;exitX=1;exitY=0.5;exitDx=0;exitDy=0;entryX=0.5;entryY=1;entryDx=0;entryDy=0;" parent="1" source="73" target="23" edge="1">
                    <mxGeometry width="50" height="50" relative="1" as="geometry">
                        <mxPoint x="-213" y="83" as="sourcePoint"/>
                        <mxPoint x="-255" y="85" as="targetPoint"/>
                    </mxGeometry>
                </mxCell>
                <mxCell id="83" value="" style="triangle;whiteSpace=wrap;html=1;rotation=-180;" parent="1" vertex="1">
                    <mxGeometry x="-56" y="-21" width="13" height="26" as="geometry"/>
                </mxCell>
                <mxCell id="84" value="" style="endArrow=none;html=1;strokeWidth=1;entryX=1;entryY=0.5;entryDx=0;entryDy=0;exitX=1;exitY=0.5;exitDx=0;exitDy=0;" parent="1" source="23" target="83" edge="1">
                    <mxGeometry width="50" height="50" relative="1" as="geometry">
                        <mxPoint x="-180" y="11" as="sourcePoint"/>
                        <mxPoint x="-70" y="-114" as="targetPoint"/>
                    </mxGeometry>
                </mxCell>
                <mxCell id="85" value="" style="triangle;whiteSpace=wrap;html=1;rotation=90;" parent="1" vertex="1">
                    <mxGeometry x="5" y="74" width="13" height="26" as="geometry"/>
                </mxCell>
                <mxCell id="86" value="" style="endArrow=none;html=1;strokeWidth=1;exitX=1;exitY=0.5;exitDx=0;exitDy=0;entryX=1;entryY=0.5;entryDx=0;entryDy=0;" parent="1" source="29" target="85" edge="1">
                    <mxGeometry width="50" height="50" relative="1" as="geometry">
                        <mxPoint x="-101" y="119" as="sourcePoint"/>
                        <mxPoint x="-51" y="69" as="targetPoint"/>
                        <Array as="points">
                            <mxPoint x="12" y="183"/>
                        </Array>
                    </mxGeometry>
                </mxCell>
                <mxCell id="73" value="" style="triangle;whiteSpace=wrap;html=1;rotation=-90;" parent="1" vertex="1">
                    <mxGeometry x="-269.5" y="94" width="13" height="26" as="geometry"/>
                </mxCell>
            </root>
        </mxGraphModel>
    </diagram>
</mxfile>